<svg width="273" height="249" viewBox="0 0 273 249" fill="none" xmlns="http://www.w3.org/2000/svg">
<g opacity="0.25">
<path opacity="0.25" d="M271.844 159.347C270.862 143.609 262.719 136.747 253.058 134.257C261.697 117.755 276.874 74.7961 228.876 35.3014C190.374 3.62051 169.613 40.9881 169.613 40.9881C169.613 40.9881 175.163 10.3909 143.449 8.31534C111.735 6.23976 103.038 28.5567 85.3696 36.7304C67.701 44.9042 62.1143 29.0747 31.0084 47.494C-0.0975932 65.9133 39.0935 105.368 26.8174 112.634C14.5414 119.9 0.730338 136.508 0.217461 155.192C-0.295416 173.876 20.1684 171.801 23.2383 202.423C23.8025 208.059 25.1836 212.07 27.0922 214.892C27.9091 197.023 78.2626 182.608 140.273 182.608C202.793 182.608 253.476 197.258 253.476 215.332C253.476 215.387 253.469 215.446 253.469 215.501C266.074 202.783 273.324 183.064 271.844 159.347Z" fill="#C9EBF9"/>
<path opacity="0.25" d="M265.254 130.71C268.2 130.71 270.588 127.931 270.588 124.502C270.588 121.073 268.2 118.294 265.254 118.294C262.308 118.294 259.92 121.073 259.92 124.502C259.92 127.931 262.308 130.71 265.254 130.71Z" fill="#C9EBF9"/>
<path opacity="0.25" d="M79.8505 33.496C86.3299 30.5322 89.5453 23.651 87.0322 18.1264C84.5192 12.6017 77.2293 10.5257 70.7499 13.4895C64.2705 16.4532 61.0551 23.3344 63.5682 28.8591C66.0812 34.3837 73.3711 36.4598 79.8505 33.496Z" fill="#C9EBF9"/>
<path opacity="0.25" d="M140.269 182.607C78.259 182.607 27.9018 197.022 27.0885 214.89C27.0812 215.037 27.0702 215.184 27.0702 215.331C27.0702 233.405 77.7534 248.055 140.273 248.055C202.599 248.055 253.15 233.497 253.469 215.5C253.469 215.445 253.476 215.386 253.476 215.331C253.472 197.257 202.789 182.607 140.269 182.607Z" fill="#FBDDEA"/>
</g>
<path d="M93.158 151.775L90.7622 151.374C90.7622 151.374 89.9343 132.893 87.9926 127.298C87.9926 127.298 61.444 126.662 57.5241 107.031C57.5241 107.031 78.0428 100.756 88.0696 124.355C88.0696 124.355 87.1391 106.487 82.8089 89.3202C82.8089 89.3202 62.7994 92.5163 60.1691 75.0006C60.1691 75.0006 72.3682 69.4462 81.4095 80.4412C81.4095 80.4412 78.7645 66.7167 75.6323 59.6561C75.6323 59.6561 60.5171 61.7721 56.2493 46.7214C56.2493 46.7214 67.3347 45.41 74.1926 53.5102L69.0235 38.9408C69.0235 38.9408 56.916 29.1177 60.5281 14.7503C60.5281 14.7503 74.2476 21.0468 70.7234 37.3244L75.6873 53.1245C75.6873 53.1245 78.1381 38.353 88.7876 38.4412C88.7876 38.4412 88.8535 56.585 77.7644 59.1638C77.7644 59.1638 82.7357 73.7002 84.0581 84.2507C84.0581 84.2507 83.7651 65.0159 99.7778 62.415C99.7778 62.415 104.247 77.4987 85.5748 87.4577C85.5748 87.4577 88.8755 103.401 90.0661 123.418C90.0661 123.418 86.6775 104.297 105.35 94.342C105.35 94.342 115.303 110.972 91.3483 128.062C91.352 128.069 93.4072 139.167 93.158 151.775Z" fill="#FAC5CA"/>
<path opacity="0.36" d="M159.162 163.798L156.714 162.362C156.714 162.362 163.499 141.83 163.704 134.909C163.704 134.909 134.972 123.11 138.859 100.032C138.859 100.032 163.88 101.763 165.012 131.732C165.012 131.732 171.427 111.832 173.845 91.2709C173.845 91.2709 150.663 86.3924 155.077 66.162C155.077 66.162 170.709 65.1995 176.01 80.9886C176.01 80.9886 178.83 64.8946 178.347 55.8723C178.347 55.8723 160.96 51.8608 162.558 33.6398C162.558 33.6398 175.211 36.8432 179.329 48.5582L179.743 30.4879C179.743 30.4879 170.606 14.6989 180.53 0.51886C180.53 0.51886 192.894 13.1302 182.274 29.4373L181.124 48.7676C181.124 48.7676 189.945 33.6619 201.536 38.2134C201.536 38.2134 194.059 58.0544 180.875 56.2323C180.875 56.2323 180.255 74.1851 177.314 86.2638C177.314 86.2638 184.996 65.1334 203.566 68.9943C203.566 68.9943 202.17 87.3365 177.64 90.4003C177.64 90.4003 174.614 109.191 167.584 131.552C167.584 131.552 171.837 109.253 196.367 106.189C196.367 106.189 200.32 128.514 167.049 137.158C167.049 137.154 164.675 150.133 159.162 163.798Z" fill="#FAC5CA"/>
<path opacity="0.36" d="M216.802 200.707L215.703 199.682C215.703 199.682 221.571 189.877 222.476 186.328C222.476 186.328 209.017 176.906 213.684 165.451C213.684 165.451 226.392 169.246 223.517 184.841C223.517 184.841 229.122 175.319 232.741 164.992C232.741 164.992 221.344 159.787 225.956 149.861C225.956 149.861 234.133 151.18 235.045 159.941C235.045 159.941 238.357 151.966 239.148 147.256C239.148 147.256 230.642 143.171 233.569 133.954C233.569 133.954 239.727 137.073 240.5 143.597L242.801 134.322C242.801 134.322 239.91 125.116 246.666 118.951C246.666 118.951 251.589 126.894 244.23 134.072L241.405 143.91C241.405 143.91 247.699 137.139 253.154 140.835C253.154 140.835 247.006 150.202 240.416 147.734C240.416 147.734 238.024 156.921 235.111 162.814C235.111 162.814 241.511 152.803 250.648 156.951C250.648 156.951 247.812 166.252 234.804 164.985C234.804 164.985 231.074 174.327 224.868 185.046C224.868 185.046 229.635 174.037 242.647 175.304C242.647 175.304 242.108 187.28 223.949 187.879C223.945 187.875 221.223 194.296 216.802 200.707Z" fill="#FAC5CA"/>
<path d="M186.886 180.774L189.077 180.587C189.077 180.587 191.183 164.353 193.349 159.555C193.349 159.555 217.373 160.808 222.352 143.774C222.352 143.774 204.28 136.842 193.491 156.958C193.491 156.958 195.645 141.276 200.811 126.442C200.811 126.442 218.648 130.626 222.308 115.366C222.308 115.366 211.699 109.639 202.723 118.713C202.723 118.713 206.119 106.799 209.467 100.789C209.467 100.789 222.963 103.688 227.924 90.7125C227.924 90.7125 218.011 88.7986 211.222 95.4735L216.959 82.987C216.959 82.987 228.616 75.1586 226.407 62.2496C226.407 62.2496 213.556 66.86 215.541 81.4514L209.896 95.0363C209.896 95.0363 208.768 81.8518 199.144 81.2016C199.144 81.2016 197.752 97.189 207.581 100.216C207.581 100.216 202.027 112.688 200.056 121.897C200.056 121.897 201.734 104.966 187.461 101.583C187.461 101.583 182.318 114.572 198.448 124.62C198.448 124.62 194.297 138.443 191.751 156.007C191.751 156.007 196.217 139.387 180.083 129.336C180.083 129.336 169.873 143.314 190.253 160.007C190.26 160.007 187.59 169.647 186.886 180.774Z" fill="#FAC5CA"/>
<path opacity="0.36" d="M56.3738 217.657L58.3117 216.147C58.3117 216.147 50.472 199.667 49.6002 193.856C49.6002 193.856 72.8554 180.429 67.2248 161.451C67.2248 161.451 46.1126 165.944 48.1678 191.339C48.1678 191.339 40.7054 175.344 36.5804 158.31C36.5804 158.31 55.8133 151.389 50.0178 134.873C50.0178 134.873 36.6207 135.956 33.701 149.909C33.701 149.909 29.6786 136.687 29.184 129.024C29.184 129.024 43.5739 123.536 40.3794 108.371C40.3794 108.371 29.9387 112.603 27.6124 122.978L25.44 107.798C25.44 107.798 31.6238 93.3832 21.7546 82.6343C21.7546 82.6343 12.5082 94.7645 23.1833 107.218L26.1067 123.371C26.1067 123.371 17.0801 111.707 7.67616 116.949C7.67616 116.949 16.036 132.764 27.0666 129.63C27.0666 129.63 29.4001 144.685 33.1222 154.508C33.1222 154.508 24.4582 137.631 9.04993 143.134C9.04993 143.134 12.0832 158.424 33.2614 158.031C33.2614 158.031 37.7307 173.5 45.9587 191.493C45.9587 191.493 40.0936 173.217 18.9155 173.607C18.9155 173.607 17.8018 192.9 46.9772 196.152C46.9808 196.155 50.3072 206.805 56.3738 217.657Z" fill="#FAC5CA"/>
<path d="M95.4733 115.296C95.4733 118.892 93.0152 121.809 91.1102 121.809C89.2052 121.809 86.0364 119.3 86.0364 115.704C86.0364 112.107 89.2052 108.783 91.1102 108.783C93.0152 108.783 95.4733 111.7 95.4733 115.296Z" fill="#C9EBF9"/>
<path d="M88.7807 190.716C91.3487 189.91 92.5615 186.473 91.4896 183.04C90.4178 179.608 87.4671 177.478 84.8992 178.285C82.3312 179.091 81.1184 182.527 82.1903 185.96C83.2621 189.393 86.2128 191.522 88.7807 190.716Z" fill="#C9EBF9"/>
<path d="M169.782 50.2223C169.756 50.2223 169.734 50.2186 169.709 50.2186C168.419 50.2186 167.32 51.0709 166.943 52.2391C166.866 52.4742 166.822 52.724 166.807 52.9775C166.803 53.0289 166.8 53.084 166.8 53.1354V56.2874V63.3553V70.4306V73.5164C166.8 75.1218 168.111 76.4369 169.712 76.4369C171.313 76.4369 172.625 75.1218 172.625 73.5164V53.1354C172.621 51.5558 171.35 50.259 169.782 50.2223Z" fill="#1D439C"/>
<path d="M198.43 57.3564H79.6987V218.748H198.43V57.3564Z" fill="#6A9ECE"/>
<path d="M198.43 218.748H79.6987L198.43 57.3564V218.748Z" fill="#BDDBF3"/>
<path d="M167.104 202.018H89.8573H78.4751C78.4751 208.227 83.5416 213.307 89.7328 213.307H89.8536H178.358C172.17 213.307 167.104 208.23 167.104 202.018Z" fill="#BDDBF3"/>
<path d="M89.8573 64.057V202.018H167.104C167.104 208.226 172.17 213.307 178.361 213.307C184.553 213.307 189.619 208.226 189.619 202.018V157.237V127.389V119.848V115.737V98.4674V64.0606H89.8573V64.057ZM173.401 186.181C173.401 186.916 172.808 187.515 172.071 187.515H135.034C134.302 187.515 133.705 186.92 133.705 186.181C133.705 185.447 134.298 184.848 135.034 184.848H172.071C172.804 184.848 173.401 185.443 173.401 186.181ZM185.674 68.7738V68.6159C185.674 68.6416 185.681 68.6673 185.681 68.693C185.681 68.7224 185.674 68.7481 185.674 68.7738Z" fill="white"/>
<path d="M135.034 184.848C134.302 184.848 133.705 185.443 133.705 186.181C133.705 186.916 134.298 187.515 135.034 187.515H172.071C172.804 187.515 173.401 186.92 173.401 186.181C173.401 185.447 172.808 184.848 172.071 184.848H135.034Z" fill="#BDDBF3"/>
<path d="M111.318 107.155C110.336 107.155 109.537 107.839 109.537 108.687C109.537 109.536 110.332 110.219 111.318 110.219H139.775H162.832C163.814 110.219 164.613 109.532 164.613 108.687C164.613 107.842 163.818 107.155 162.832 107.155H139.775H111.318Z" fill="#83AEDC"/>
<path d="M111.318 178.647C110.336 178.647 109.537 179.334 109.537 180.179C109.537 181.024 110.332 181.711 111.318 181.711H139.775H162.832C163.814 181.711 164.613 181.024 164.613 180.179C164.613 179.334 163.818 178.647 162.832 178.647H139.775H111.318Z" fill="#83AEDC"/>
<path d="M110.288 124.631H139.028H162.605C163.272 124.631 163.858 124.329 164.195 123.881C164.448 123.617 164.605 123.282 164.605 122.911C164.605 122.066 163.811 121.379 162.825 121.379H162.803C162.737 121.372 162.671 121.361 162.602 121.361H139.024H110.284C109.24 121.361 108.387 122.096 108.387 122.996C108.39 123.896 109.244 124.631 110.288 124.631Z" fill="#83AEDC"/>
<path d="M110.288 130.439H139.028H162.605C163.649 130.439 164.503 129.704 164.503 128.804C164.503 127.904 163.649 127.169 162.605 127.169H139.028H110.288C109.244 127.169 108.39 127.904 108.39 128.804C108.39 129.704 109.244 130.439 110.288 130.439Z" fill="#83AEDC"/>
<path d="M110.288 137.881H139.028H162.605C163.173 137.881 163.679 137.661 164.027 137.315C164.382 137.036 164.605 136.636 164.605 136.191C164.605 135.435 163.968 134.814 163.133 134.689C162.964 134.645 162.788 134.615 162.602 134.615H139.024H110.284C109.24 134.615 108.387 135.35 108.387 136.25C108.39 137.143 109.244 137.881 110.288 137.881Z" fill="#83AEDC"/>
<path d="M110.288 84.1955H162.605C163.272 84.1955 163.858 83.8943 164.195 83.4461C164.448 83.1816 164.605 82.8473 164.605 82.4763C164.605 81.6314 163.81 80.9444 162.825 80.9444H162.803C162.737 80.9371 162.671 80.9261 162.602 80.9261H110.288C109.244 80.9261 108.39 81.6608 108.39 82.5608C108.39 83.4608 109.244 84.1955 110.288 84.1955Z" fill="#83AEDC"/>
<path d="M110.288 90.0034H162.605C163.649 90.0034 164.503 89.2687 164.503 88.3687C164.503 87.4687 163.649 86.7339 162.605 86.7339H110.288C109.244 86.7339 108.39 87.4687 108.39 88.3687C108.39 89.2687 109.244 90.0034 110.288 90.0034Z" fill="#83AEDC"/>
<path d="M109.72 97.4425H146.409C146.809 97.4425 147.164 97.222 147.406 96.8767C147.655 96.5975 147.812 96.1971 147.812 95.7526C147.812 94.9958 147.365 94.375 146.779 94.2501C146.662 94.206 146.537 94.1766 146.409 94.1766H109.72C108.988 94.1766 108.39 94.9114 108.39 95.8114C108.39 96.7077 108.988 97.4425 109.72 97.4425Z" fill="#83AEDC"/>
<path d="M110.288 145.864H139.028H162.605C163.393 145.864 164.071 145.445 164.356 144.857C164.514 144.63 164.609 144.369 164.609 144.086C164.609 143.241 163.814 142.554 162.829 142.554H146.402H142.189H139.775H120.458C120.458 142.569 120.461 142.583 120.461 142.598H114.651C114.651 142.583 114.651 142.569 114.651 142.554H111.321C111.182 142.554 111.046 142.572 110.915 142.598H110.288C109.244 142.598 108.39 143.333 108.39 144.233C108.39 145.129 109.244 145.864 110.288 145.864Z" fill="#83AEDC"/>
<path d="M110.288 168.372H110.86C111.006 168.405 111.16 168.431 111.321 168.431H131.547C131.51 168.412 131.477 168.39 131.444 168.372H139.035H139.449H154.374H162.613C163.657 168.372 164.51 167.637 164.51 166.737C164.51 165.837 163.657 165.102 162.613 165.102H139.035H110.295C109.251 165.102 108.398 165.837 108.398 166.737C108.39 167.637 109.244 168.372 110.288 168.372Z" fill="#83AEDC"/>
<path d="M110.288 174.543H139.028H162.605C163.649 174.543 164.503 173.809 164.503 172.909C164.503 172.009 163.649 171.274 162.605 171.274H139.028H110.288C109.244 171.274 108.39 172.009 108.39 172.909C108.39 173.805 109.244 174.543 110.288 174.543Z" fill="#83AEDC"/>
<path d="M139.672 42.5666C140.13 42.5666 140.5 42.1955 140.5 41.7364C140.5 41.2772 140.13 40.9061 139.672 40.9061C139.214 40.9061 138.844 41.2772 138.844 41.7364C138.844 42.1955 139.214 42.5666 139.672 42.5666Z" fill="white"/>
<path d="M217.014 189.635C217.018 189.632 217.025 189.628 217.029 189.624C217.04 189.613 217.044 189.602 217.055 189.59C217.044 189.605 217.029 189.62 217.014 189.635Z" fill="#203B71"/>
<path d="M176.021 89.6251C175.493 89.6251 174.995 89.3716 174.687 88.9381L171.679 84.7135C171.152 83.9751 171.324 82.9502 172.06 82.4212C172.797 81.8922 173.819 82.0649 174.346 82.8033L175.812 84.8605L180.288 76.3525C180.71 75.5516 181.703 75.243 182.501 75.6655C183.3 76.088 183.608 77.0835 183.186 77.8844L177.468 88.7471C177.204 89.2504 176.695 89.581 176.13 89.6177C176.094 89.6251 176.057 89.6251 176.021 89.6251Z" fill="#F2759C"/>
<path d="M176.021 133.682C175.493 133.682 174.995 133.429 174.687 132.995L171.679 128.771C171.152 128.032 171.324 127.007 172.06 126.478C172.797 125.949 173.819 126.122 174.346 126.86L175.812 128.918L180.288 120.41C180.71 119.609 181.703 119.3 182.501 119.723C183.3 120.145 183.608 121.141 183.186 121.942L177.468 132.804C177.204 133.308 176.695 133.638 176.13 133.675C176.094 133.682 176.057 133.682 176.021 133.682Z" fill="#83AEDC"/>
<path d="M176.021 176.836C175.493 176.836 174.995 176.582 174.687 176.149L171.679 171.924C171.152 171.186 171.324 170.161 172.06 169.632C172.797 169.107 173.819 169.276 174.346 170.014L175.812 172.071L180.288 163.563C180.71 162.762 181.703 162.454 182.501 162.876C183.3 163.299 183.608 164.294 183.186 165.095L177.471 175.958C177.208 176.461 176.698 176.792 176.134 176.828C176.094 176.832 176.057 176.836 176.021 176.836Z" fill="#83AEDC"/>
<path d="M168.141 57.294H163.891V70.4087H168.141V57.294Z" fill="#BDDBF3"/>
<path d="M166.943 52.2355H108.343V52.9739H166.807C166.822 52.7204 166.866 52.4706 166.943 52.2355Z" fill="#61A4D9"/>
<path d="M166.8 56.2911H108.343V63.359H166.8V56.2911Z" fill="#61A4D9"/>
<path d="M154.894 40.1935H123.231V50.2113H154.894V40.1935ZM139.137 48.808C137.566 48.808 136.287 47.5296 136.287 45.95C136.287 44.374 137.562 43.0956 139.137 43.0956C140.709 43.0956 141.984 44.374 141.984 45.95C141.984 47.5296 140.709 48.808 139.137 48.808Z" fill="#61A4D9"/>
<path d="M169.709 50.2187C169.734 50.2187 169.756 50.2223 169.782 50.2223V50.2113H154.894H123.231H108.343V52.2391H166.943C167.324 51.0673 168.423 50.2187 169.709 50.2187Z" fill="#4E99CD"/>
<path d="M166.8 53.1355C166.8 53.0804 166.803 53.029 166.807 52.9775H108.343V56.2911H166.8V53.1355Z" fill="#4E99CD"/>
<path d="M168.188 70.4307L168.17 70.405C168.141 70.4087 168.111 70.4123 168.082 70.4123C167.379 70.4123 166.8 69.8356 166.8 69.1266V68.5315V67.771V64.6595V63.359H108.343V67.4147C109.193 67.5139 110.043 67.5543 110.893 67.569V69.1743C110.893 69.8172 110.409 70.3462 109.794 70.4344H166.316H168.188V70.4307Z" fill="#81B9E0"/>
<path d="M108.332 67.411V69.1743C108.332 69.211 108.339 69.2478 108.343 69.2845V67.4147C108.339 67.411 108.336 67.411 108.332 67.411Z" fill="#2782B5"/>
<path d="M109.614 70.4564C109.643 70.4564 109.673 70.449 109.702 70.449C109.735 70.4454 109.764 70.438 109.794 70.4344H109.372C109.449 70.4454 109.53 70.4564 109.614 70.4564Z" fill="#2782B5"/>
<path d="M110.893 69.1707V67.5653C110.039 67.5506 109.189 67.5102 108.343 67.411V69.2809C108.394 69.8539 108.819 70.3242 109.372 70.4307H109.794C110.413 70.3425 110.893 69.8135 110.893 69.1707Z" fill="#81B9E0"/>
<path d="M95.9202 82.5645C95.9202 81.4955 96.7848 80.6285 97.8509 80.6285C98.9169 80.6285 99.7815 81.4955 99.7815 82.5645C99.7815 83.6335 98.9169 84.5005 97.8509 84.5005C96.7848 84.5005 95.9202 83.6335 95.9202 82.5645Z" fill="#83AEDC"/>
<path d="M95.9202 123.209C95.9202 122.14 96.7848 121.273 97.8509 121.273C98.9169 121.273 99.7815 122.14 99.7815 123.209C99.7815 124.278 98.9169 125.145 97.8509 125.145C96.7848 125.145 95.9202 124.278 95.9202 123.209Z" fill="#83AEDC"/>
<path d="M95.9202 166.193C95.9202 165.124 96.7848 164.258 97.8509 164.258C98.9169 164.258 99.7815 165.124 99.7815 166.193C99.7815 167.262 98.9169 168.129 97.8509 168.129C96.7848 168.129 95.9202 167.262 95.9202 166.193Z" fill="#83AEDC"/>
<path d="M81.1714 131.272C80.7648 131.045 78.0502 134.862 78.0502 134.862L77.7095 134.02C77.2332 132.187 76.1489 133.333 76.1489 133.333C76.1489 133.333 77.3028 136.158 77.4384 137.073C77.497 137.473 77.519 138.109 77.5226 138.693C77.6216 138.535 77.7095 138.447 77.7791 138.447L80.0541 139.876C81.0285 138.667 82.384 136.812 82.8053 135.394C83.4793 133.102 81.578 131.5 81.1714 131.272Z" fill="#FAC5C9"/>
<path d="M77.5226 138.693C76.4676 140.365 73.9325 150.14 73.9325 150.14C71.6905 145.559 63.7592 137.227 63.7592 137.227L63.8288 137.58C63.8325 137.587 67.8 142.565 68.4337 151.139C68.5107 152.193 66.3309 153.78 66.3786 154.857C68.5363 157.248 74.0131 160.312 74.1816 160.43C80.2958 164.621 80.087 139.894 80.087 139.894L80.0541 139.872L77.7791 138.443C77.7058 138.447 77.6216 138.539 77.5226 138.693Z" fill="#EF4F8D"/>
<path d="M57.4582 233.361L57.7476 234.283C57.7476 234.283 59.6599 238.225 59.2349 238.758C58.8099 239.29 54.4542 239.184 53.923 238.438C53.3918 237.692 54.5604 235.242 54.5604 235.242L54.7875 233.365C55.5129 233.42 56.6742 233.391 57.4582 233.361Z" fill="#4161AD"/>
<path d="M65.5616 179.907C67.0783 179.701 68.4081 179.477 69.1774 179.242C69.8661 179.033 70.3717 178.838 70.7417 178.647L86.1353 232.325C85.7909 232.498 84.8861 232.81 83.9336 233.122L84.6186 234.496C84.6186 234.496 92.4766 233.537 92.7954 235.029C93.1141 236.52 92.9016 238.225 89.2895 238.012C85.6774 237.799 82.0689 236.733 82.0689 236.733V233.714C81.4425 233.908 80.9992 234.041 80.9992 234.041L62.7225 193.407L62.7371 193.275L65.5616 179.907Z" fill="#4161AD"/>
<path d="M52.6664 138.146C53.2892 138.642 56.3555 139.909 57.4435 140.416C58.5315 140.919 59.7075 141.845 60.3779 140.835C60.0409 141.761 61.3853 141.423 61.7187 141.088C62.0154 140.791 62.7115 138.429 62.8031 137.084C63.7409 139.964 66.4591 147.77 66.8365 149.005C67.2944 150.5 67.9831 153.487 67.9831 153.487C67.9831 153.487 68.071 153.288 68.1736 153.005C68.1993 153.24 68.2249 153.483 68.2542 153.733C67.778 153.52 69.6317 163.82 69.6536 164.155C69.9321 168.35 63.0082 169.816 60.5318 171.16C61.9239 170.238 50.2706 170.874 50.2706 170.874C49.8749 170.477 49.4243 145.812 46.739 141C46.838 139.52 49.2412 135.416 52.6664 138.146Z" fill="#F2759C"/>
<path d="M60.616 136.199C60.616 136.199 61.2901 137.543 61.2351 138.722C61.1069 137.984 60.8065 137.066 60.616 136.199Z" fill="#F2759C"/>
<path d="M59.7661 139.755L60.5611 140.185C60.6343 140.181 60.7003 140.174 60.7626 140.159C60.6527 140.298 60.5684 140.313 60.3816 140.831C60.4585 140.71 60.2167 140.295 59.7661 139.755Z" fill="#F2759C"/>
<path d="M58.7916 158.574C58.3667 158.729 58.0663 158.776 57.9601 158.67C57.9601 158.67 58.2751 158.696 58.7916 158.574Z" fill="#F2759C"/>
<path d="M46.3507 163.104C45.9624 159.515 45.6034 155.231 45.314 151.352C46.054 152.664 46.8746 154.107 47.7208 155.569C47.2373 158.365 46.7354 161.197 46.3507 163.104Z" fill="#F2759C"/>
<path d="M46.9808 168.001C48.3436 166.26 49.5086 161.737 49.9921 159.397C52.2232 163.06 54.3076 166.116 55.2674 166.465C56.6302 166.961 61.5392 163.255 65.4004 160.073C66.0708 160.103 67.4593 160.132 68.9539 160C69.3203 163.273 69.639 166.047 69.6829 166.216C69.7599 166.531 70.1812 171.932 70.3936 174.731C69.5327 175.264 62.5393 176.895 61.3853 177.06C60.257 177.222 50.7212 177.071 49.8309 178.335C49.4609 177.185 48.7319 174.87 48.1091 172.707C47.6805 171.219 47.3069 169.808 47.1383 168.905C47.0834 168.629 47.0321 168.32 46.9808 168.001Z" fill="#F2759C"/>
<path d="M50.8604 123.066C50.8714 123 50.886 122.937 50.897 122.871C50.897 122.875 50.897 122.875 50.897 122.878C50.8823 122.941 50.8714 123.003 50.8604 123.066Z" fill="#FAC5C9"/>
<path d="M50.7725 124.234C50.7688 124.043 50.7725 123.852 50.7871 123.661C50.7944 123.69 50.8018 123.723 50.8091 123.753C50.7944 123.903 50.7834 124.065 50.7725 124.234Z" fill="#FAC5C9"/>
<path d="M63.5761 124.021C63.5761 124.006 63.5761 123.991 63.5761 123.977C63.5541 123.047 63.3196 122.173 62.946 121.387L62.6382 121.842L62.3928 121.901C61.8469 122.338 60.9128 122.555 59.506 122.592C58.6634 122.614 57.6816 122.496 56.7475 122.276C55.4946 123.018 54.9634 124.028 54.7363 124.958C54.7289 125.02 54.641 126.027 54.6483 126.368C54.6593 126.846 54.5714 127.294 54.4102 127.683C54.3077 127.632 54.2051 127.58 54.0988 127.544C53.6885 127.393 53.5347 126.739 53.4761 126.313C53.5493 126.052 53.586 125.747 53.5786 125.428C53.553 124.436 53.0951 123.642 52.5565 123.657C52.018 123.672 51.6041 124.487 51.626 125.479C51.648 126.354 52.0034 127.07 52.4576 127.22L53.1097 127.977L53.2856 128.179L53.3149 129.998C53.1537 130.134 52.9778 130.2 52.7983 130.093C52.2525 129.774 51.3659 128.01 51.3659 128.01C51.1205 127.58 50.941 127.044 50.8274 126.464C50.7065 125.836 50.7175 124.969 50.7615 124.234C50.7725 124.065 50.7835 123.903 50.7981 123.753C50.7908 123.723 50.7835 123.69 50.7761 123.661V123.657C50.7798 123.624 50.7835 123.595 50.7871 123.562C50.8018 123.396 50.8238 123.231 50.8494 123.066C50.8604 123.003 50.875 122.941 50.886 122.878C50.886 122.875 50.886 122.875 50.886 122.871C50.8897 122.834 50.8934 122.809 50.8934 122.809H50.897C50.919 122.702 50.9446 122.595 50.9703 122.489C50.9886 122.415 51.0106 122.342 51.0326 122.268C51.0692 122.151 51.1058 122.037 51.1498 121.923C51.1754 121.853 51.2011 121.784 51.2267 121.717C51.278 121.593 51.333 121.471 51.3916 121.346C51.4172 121.295 51.4392 121.244 51.4649 121.192C51.5491 121.027 51.6407 120.865 51.7396 120.711C51.7726 120.659 51.8092 120.608 51.8458 120.557C51.9154 120.45 51.9887 120.347 52.0657 120.248C52.1133 120.186 52.1609 120.127 52.2122 120.064C52.2818 119.98 52.3551 119.892 52.432 119.811C52.4869 119.752 52.5419 119.693 52.6005 119.635C52.6774 119.554 52.758 119.477 52.8423 119.403C52.9009 119.352 52.9559 119.297 53.0145 119.245C53.117 119.157 53.2269 119.072 53.3332 118.992C53.4028 118.94 53.4724 118.889 53.5457 118.837C53.6666 118.757 53.7874 118.676 53.912 118.602C53.9816 118.562 54.0549 118.521 54.1281 118.485C54.1941 118.448 54.26 118.411 54.3296 118.375C54.4798 118.268 54.6447 118.172 54.8169 118.084L54.8315 118.055C54.8315 118.055 54.8828 118.037 54.9597 118.007C55.3554 117.816 55.8096 117.662 56.3005 117.555C57.5461 117.162 59.2606 116.692 60.1105 116.791C61.5355 116.96 65.0561 118.22 65.0561 118.22L63.2097 120.964C63.5284 121.956 63.9278 123.481 63.7189 124.366C63.6383 124.708 63.5797 124.961 63.5358 125.156C63.5651 124.756 63.5724 124.392 63.5651 124.087C63.5797 124.069 63.5761 124.047 63.5761 124.021Z" fill="#4161AD"/>
<path d="M61.2315 138.722C61.2205 138.932 61.1912 139.134 61.1289 139.321C60.9457 139.872 60.8432 140.052 60.7552 140.159C60.693 140.174 60.6307 140.185 60.5537 140.185L59.7588 139.755C58.9309 138.767 57.3886 137.363 55.762 136.548C54.238 135.784 53.7325 135.082 53.5676 134.648L53.3442 130.413L53.3258 130.435L53.3185 129.994L53.2892 128.176L53.1134 127.974L52.4613 127.217C52.0107 127.066 51.6517 126.346 51.6297 125.476C51.604 124.484 52.0217 123.668 52.5602 123.653C53.0987 123.639 53.5566 124.432 53.5823 125.424C53.5896 125.744 53.553 126.045 53.4797 126.309C53.5383 126.736 53.6922 127.393 54.1025 127.54C54.2087 127.581 54.3113 127.628 54.4139 127.68C54.5751 127.294 54.663 126.846 54.652 126.365C54.6447 126.023 54.7326 125.016 54.7399 124.954C54.967 124.024 55.4946 123.014 56.7511 122.272C57.6853 122.493 58.6671 122.61 59.5097 122.588C60.9164 122.551 61.8506 122.335 62.3964 121.897L62.6419 121.839L62.9496 121.383C63.3269 122.173 63.5577 123.044 63.5797 123.973C63.5797 123.988 63.5797 124.002 63.5797 124.017C63.5797 124.043 63.5834 124.065 63.5834 124.094C63.5907 124.403 63.5797 124.763 63.5541 125.163C63.3746 127.735 63.2683 131.732 61.7114 132.944C61.4733 133.131 60.4109 133.223 60.4035 133.491C60.3559 134.711 60.4475 134.781 60.4475 134.781C60.4292 135.203 60.5061 135.688 60.616 136.191C60.8065 137.066 61.1069 137.984 61.2315 138.722Z" fill="#FAC5C9"/>
<path d="M56.502 180.84C57.711 180.733 62.129 180.37 65.5616 179.907L62.7408 193.275L62.7262 193.407L58.3154 232.384L58.2788 233.328C58.2788 233.328 57.9381 233.346 57.4582 233.365C56.6742 233.394 55.5093 233.42 54.7876 233.372C54.4176 233.346 54.1611 233.302 54.1355 233.225C54.0292 232.906 51.5857 215.228 51.7982 210.434C51.9777 206.379 50.9117 187.037 50.582 181.196C51.8422 181.523 54.7289 180.998 56.502 180.84Z" fill="#4770B7"/>
<path d="M49.9885 159.397C49.5049 161.737 48.34 166.26 46.9772 168.001C46.7281 168.32 46.4716 168.544 46.2115 168.647C44.149 169.452 44.149 168.188 43.4603 167.27C42.7716 166.351 45.292 165.661 45.7536 165.433C45.8562 165.382 46.0723 164.482 46.3507 163.108C46.7354 161.197 47.2336 158.369 47.7208 155.573C48.4682 156.863 49.2375 158.163 49.9885 159.397Z" fill="#4770B7"/>
<path d="M68.2762 152.719C68.2432 152.818 68.2066 152.913 68.1736 153.002C68.0674 153.285 67.9831 153.483 67.9831 153.483C67.9831 153.483 67.2944 150.496 66.8365 149.001C66.4592 147.767 63.7373 139.96 62.8031 137.08C62.8141 136.915 62.8177 136.761 62.8104 136.632C62.7921 136.393 62.6895 136.151 62.543 135.916C62.7848 135.743 63.7959 136.008 64.8949 136.709C64.8949 136.709 65.0194 137.007 65.2246 137.54C66.0342 139.659 68.104 145.537 68.562 151.415C68.5803 151.738 68.4301 152.274 68.2762 152.719Z" fill="#4770B7"/>
<path d="M38.6503 164.97C38.6503 166.348 40.5992 171.289 40.5992 171.289C40.5992 171.289 40.8556 171.741 40.2658 172.064C40.068 172.174 39.7713 172.266 39.339 172.325C37.6208 172.556 36.8186 167.27 35.9027 163.593C35.0601 160.22 36.727 159.364 37.5366 159.067C37.6098 159.041 37.6795 159.015 37.7344 158.997C37.7344 158.997 38.6503 163.593 38.6503 164.97Z" fill="#4770B7"/>
<path d="M55.7657 136.548C57.3922 137.363 58.9345 138.767 59.7625 139.755C60.2131 140.295 60.4549 140.71 60.3743 140.835C59.7039 141.845 58.5316 140.919 57.4399 140.416C56.3518 139.913 53.3881 138.469 52.6628 138.146C50.212 137.062 49.7467 138.138 49.6661 138.462C49.6515 138.513 49.6478 138.55 49.6478 138.55C49.6478 138.55 46.7207 138.318 48.2667 134.586C48.3107 134.483 48.34 134.391 48.3913 134.281C50.2339 130.247 53.4211 132.264 53.4211 132.264L53.5054 134.197C53.5054 134.197 53.4687 134.369 53.575 134.652C53.7362 135.082 54.2417 135.784 55.7657 136.548Z" fill="#EF4F8D"/>
<path d="M62.8031 137.084C62.7115 138.429 62.0191 140.791 61.7187 141.088C61.3817 141.426 60.0409 141.761 60.3779 140.835C60.5684 140.313 60.649 140.298 60.7589 140.163C60.8432 140.056 60.9494 139.872 61.1326 139.325C61.1948 139.138 61.2241 138.932 61.2351 138.726C61.2901 137.547 60.616 136.202 60.616 136.202L60.4438 134.792L60.6307 134.2C60.6307 134.2 61.9568 135.001 62.5393 135.92C62.6895 136.155 62.7921 136.397 62.8067 136.636C62.8177 136.761 62.8141 136.915 62.8031 137.084Z" fill="#EF4F8D"/>
<path d="M61.3817 177.06C62.5357 176.895 69.5291 175.264 70.39 174.731C70.4047 174.723 70.4193 174.712 70.4303 174.705C71.1007 174.202 71.7711 176.219 71.7711 177.06C71.7711 177.67 71.7235 178.147 70.738 178.651C70.3644 178.842 69.8625 179.036 69.1738 179.246C68.4044 179.477 67.0746 179.705 65.558 179.911C62.1254 180.377 57.7073 180.741 56.4984 180.844C54.7253 180.998 51.8385 181.527 50.582 181.196C50.4721 181.167 50.3731 181.134 50.2889 181.093C49.6881 180.785 49.6405 179.477 49.7577 178.496C49.765 178.441 49.7907 178.39 49.8273 178.338C50.7175 177.071 60.2534 177.222 61.3817 177.06Z" fill="#EF4F8D"/>
<path d="M32.5727 179.374L39.0386 175.153L37.1556 172.251L31.8693 175.701L30.686 176.472L29.5027 177.244C30.8875 178.823 32.0781 179.698 32.5727 179.374Z" fill="#3E64AF"/>
<path d="M25.1726 170.561L26.3559 169.79L27.5391 169.018L32.8254 165.569L30.9424 162.667L24.4765 166.888C23.9746 167.211 24.2897 168.655 25.1726 170.561Z" fill="#203B71"/>
<path d="M104.987 124.939C104.698 124.469 106.137 123.345 106.083 122.709L98.0707 131.114L96.4771 132.786L95.6162 133.69C95.9862 133.785 96.5027 133.719 97.0376 133.653C97.8729 133.554 98.7521 133.458 99.2063 134.006C99.4078 134.248 99.5067 134.601 99.525 134.972L100.049 134.167L105.98 125.082C105.518 125.167 105.112 125.138 104.987 124.939Z" fill="#E6F2FB"/>
<path d="M93.1104 123.999C93.3962 124.634 92.7807 125.446 92.2129 126.214C91.8172 126.75 91.4472 127.268 91.4216 127.687L92.8357 127.176L95.0044 126.394L105.929 122.449C105.368 122.063 103.482 122.742 103.218 122.217C103.144 122.074 103.21 121.868 103.346 121.644L93.0225 123.341L92.5133 123.426C92.7954 123.576 93.0079 123.771 93.1104 123.999Z" fill="#FDD4B4"/>
<path d="M93.6087 128.363C94.5758 128.267 95.6309 128.11 96.2683 128.334C96.4734 128.403 96.6346 128.514 96.7372 128.679C96.8325 128.833 96.8581 129.013 96.8398 129.212C96.7738 129.876 96.1657 130.747 95.6858 131.559C95.2425 132.305 94.9092 132.999 95.2059 133.425C95.3012 133.561 95.444 133.646 95.6199 133.69L96.4808 132.786L98.0743 131.114L106.086 122.709C106.083 122.662 106.072 122.614 106.046 122.57C106.02 122.522 105.98 122.482 105.932 122.449L95.0081 126.394L92.8393 127.176L91.4253 127.687C91.4179 127.805 91.4363 127.915 91.4912 128.018C91.755 128.495 92.6379 128.458 93.6087 128.363Z" fill="#F3E7D8"/>
<path d="M27.1252 174.044C27.9238 175.275 28.7444 176.366 29.5101 177.244L30.6933 176.472L31.8766 175.701L37.1629 172.251L32.8291 165.569L27.5428 169.018L26.3595 169.79L25.1763 170.561C25.6635 171.616 26.3266 172.813 27.1252 174.044Z" fill="#1D439C"/>
<path d="M103.221 122.213C103.485 122.742 105.372 122.059 105.932 122.445C105.98 122.478 106.02 122.518 106.046 122.566C106.068 122.61 106.083 122.654 106.086 122.706C106.141 123.341 104.701 124.465 104.991 124.936C105.115 125.138 105.518 125.163 105.984 125.079L108.815 120.744L103.353 121.64C103.214 121.868 103.148 122.07 103.221 122.213Z" fill="#F2759C"/>
<path d="M99.21 134.002C98.7594 133.455 97.8765 133.546 97.0413 133.649C96.5064 133.715 95.9899 133.782 95.6199 133.686L95.0081 134.329L94.5575 134.803L43.3431 168.218L45.2261 171.12L98.0926 136.629L98.7118 136.224L99.5287 134.972C99.5104 134.601 99.4115 134.248 99.21 134.002Z" fill="#09BEEC"/>
<path d="M43.3465 168.217L37.1652 172.25L39.0494 175.154L45.2306 171.121L43.3465 168.217Z" fill="#EBEBEB"/>
<path d="M37.1255 158.634L30.9443 162.668L32.8284 165.571L39.0097 161.538L37.1255 158.634Z" fill="#C4C4C4"/>
<path d="M39.0056 161.535L90.22 128.121L90.3006 128.091L91.4289 127.683C91.4545 127.265 91.8245 126.75 92.2202 126.21C92.788 125.442 93.4035 124.627 93.1177 123.995C93.0152 123.767 92.8027 123.576 92.5243 123.418L90.612 123.731L89.0147 124.774L37.1263 158.63L39.0056 161.535Z" fill="#3454A5"/>
<path d="M94.5538 134.803L95.0044 134.329L95.6162 133.686C95.4404 133.642 95.2975 133.557 95.2022 133.421C94.9055 132.995 95.2389 132.301 95.6821 131.555C96.1621 130.743 96.7702 129.873 96.8361 129.208C96.8544 129.01 96.8288 128.83 96.7335 128.675C96.631 128.51 96.4698 128.403 96.2646 128.33C95.6272 128.109 94.5721 128.264 93.605 128.359C92.6305 128.455 91.7513 128.492 91.4875 128.01C91.4326 127.911 91.4143 127.797 91.4216 127.68L90.2933 128.087L90.2127 128.117L38.9983 161.532L43.3321 168.214L94.5538 134.803Z" fill="#387ABE"/>
<path d="M39.01 161.537L32.8288 165.57L37.1645 172.252L43.3457 168.219L39.01 161.537Z" fill="#D9D9D8"/>
<path d="M58.5389 159.643L58.4839 159.662L59.4218 162.755C59.8357 162.704 60.3083 162.645 60.8432 162.568C61.1729 162.52 61.5172 162.472 61.8982 162.413C66.5398 161.708 65.1843 159.772 65.1843 158.659C65.1843 157.546 60.594 158.13 60.594 158.13C60.594 158.13 61.6381 155.9 61.2718 155.724C61.1033 155.643 60.5574 156.466 60.0262 157.366C59.4144 158.398 58.821 159.537 58.821 159.537L58.5389 159.643Z" fill="#FAC5C9"/>
<path d="M59.1543 163.754C59.4401 163.504 59.6049 163.354 59.6049 163.354L59.4218 162.755L58.4839 159.662L58.1432 158.545L49.831 162.046C49.036 153.376 48.6587 141.364 47.4937 140.052C47.3765 139.92 47.2483 139.894 47.1127 140.001C36.7819 147.862 43.2552 164.739 46.0723 168.96C46.5302 169.647 47.197 169.955 47.9919 170.003C51.4868 170.209 57.4765 165.22 59.1543 163.754Z" fill="#EF4F8D"/>
<path d="M220.007 221.738L219.644 226.602L217.219 226.359L216.977 221.374L220.007 221.738Z" fill="#FAC6C9"/>
<path d="M234.741 218.773L236.525 223.31L234.236 224.151L231.855 219.769L234.741 218.773Z" fill="#FAC6C9"/>
<path d="M220.736 225.265L216.736 225.871C216.736 225.871 212.735 228.545 211.16 228.666C209.585 228.788 208.006 230.246 209.585 230.488C211.16 230.731 221.223 230.004 221.223 230.004L220.736 225.265Z" fill="#024F4B"/>
<path d="M226.125 180.491C226.125 180.491 219.959 198.514 220.568 204.593C221.172 210.673 221.223 222.102 221.223 222.102L215.523 221.98C215.523 221.98 213.34 202.771 213.34 199.123C213.34 195.476 218.483 165.569 218.483 165.569L226.125 180.491Z" fill="#024F4B"/>
<path d="M236.873 222.59L232.752 224.17C232.752 224.17 232.51 227.087 230.935 227.454C229.36 227.818 226.935 229.034 227.176 230.007C227.418 230.981 234.452 229.522 234.452 229.522L239.06 225.874L236.873 222.59Z" fill="#024F4B"/>
<path d="M231.455 165.999C231.455 165.999 233.569 167.92 233.705 170.697C234.042 177.725 232.697 190.333 233.393 191.901C234.364 194.091 237.115 220.037 237.115 220.037L231.66 221.374C231.66 221.374 223.092 194.326 222.242 188.25C221.392 182.17 218.15 166.021 218.15 166.021L231.455 165.999Z" fill="#00848A"/>
<path d="M214.724 122.471C214.724 122.471 213.149 131.956 219.212 131.956L218.97 138.52L224.546 136.089L224.183 121.622L216.787 121.38L214.724 122.471Z" fill="#FAC6C9"/>
<path d="M219.476 122.831C219.476 122.831 212.468 123.165 212.347 121.828C212.226 120.491 212.178 115.054 218.362 117.122C224.546 119.19 226.85 119.19 226.242 122.107C225.638 125.024 224.546 128.55 224.546 128.55L223.333 128.065L222.604 125.027C222.604 125.027 224.418 124.179 223.333 122.596C221.341 119.693 221.209 126.64 221.209 126.64L219.476 122.831Z" fill="#024F4B"/>
<path d="M224.667 132.926L218.604 135.479C218.604 135.479 216.047 139.755 215.944 143.671C215.853 147.208 217.124 150.144 217.476 153.024C218.318 159.919 220.051 158.721 218.498 163.196C217.047 167.38 215.776 168.835 215.776 168.835L233.324 167.097L230.488 159.519L230.016 146.727L224.667 132.926Z" fill="#F27B21"/>
<path d="M222.755 145.335C225.066 144.215 227.664 143.55 229.829 142.172C229.708 140.82 229.558 139.847 229.396 139.49C228.792 138.153 226.367 134.99 225.154 134.263C225.154 134.263 219.263 133.756 221.809 142.268C222.132 143.362 222.454 144.38 222.755 145.335Z" fill="#F79A20"/>
<path d="M219.545 121.185C219.545 121.185 228.697 120.311 222.597 126.721C216.498 133.131 225.356 139.395 226.81 140.996C228.264 142.598 225.792 149.008 228.118 149.883C230.44 150.757 242.031 163.163 240.174 147.697C238.313 132.198 231.979 136.687 230.169 130.148C228.063 122.551 227.11 112.298 219.403 117.107L216.351 118.856L219.545 121.185Z" fill="#024F4B"/>
<path d="M223.392 117.294C223.392 117.294 220.34 113.507 222.374 112.78C224.407 112.052 228.766 113.654 226.44 115.84C224.117 118.022 223.392 117.294 223.392 117.294Z" fill="#024F4B"/>
<path d="M222.157 115.476C222.157 115.476 224.55 116.479 225.718 116.369C225.718 116.369 226.663 117.82 224.883 117.596C223.103 117.372 220.934 116.872 221.212 116.259C221.487 115.645 221.546 115.252 222.157 115.476Z" fill="#F79A20"/>
<path d="M227.887 158.519L224.476 153.266L222.132 154.798L224.92 159.092L225.542 160.051L226.165 161.01C227.44 159.886 228.147 158.923 227.887 158.519Z" fill="#3E64AF"/>
<path d="M220.765 164.529L220.143 163.571L219.52 162.612L216.732 158.317L214.387 159.849L217.798 165.102C218.058 165.503 219.227 165.249 220.765 164.529Z" fill="#203B71"/>
<path d="M183.904 99.6871C183.523 99.9222 182.618 98.754 182.102 98.7981L188.894 105.308L190.246 106.601L190.975 107.299C191.052 106.998 190.997 106.579 190.945 106.142C190.865 105.462 190.788 104.746 191.231 104.382C191.429 104.217 191.715 104.136 192.011 104.125L191.359 103.699L184.021 98.8825C184.087 99.2573 184.065 99.5879 183.904 99.6871Z" fill="#E6F2FB"/>
<path d="M183.146 109.334C183.659 109.102 184.315 109.602 184.937 110.061C185.373 110.381 185.787 110.682 186.128 110.704L185.714 109.554L185.08 107.791L181.893 98.9156C181.582 99.3711 182.131 100.903 181.706 101.116C181.589 101.175 181.424 101.123 181.245 101.01L182.615 109.396L182.681 109.808C182.805 109.591 182.963 109.418 183.146 109.334Z" fill="#FDD4B4"/>
<path d="M186.67 108.93C186.593 108.144 186.465 107.288 186.644 106.77C186.703 106.604 186.791 106.472 186.923 106.388C187.047 106.311 187.194 106.288 187.355 106.307C187.894 106.362 188.597 106.854 189.253 107.244C189.857 107.604 190.414 107.875 190.758 107.633C190.868 107.556 190.934 107.438 190.975 107.295L190.246 106.597L188.894 105.304L182.102 98.7944C182.062 98.798 182.025 98.8091 181.992 98.8274C181.952 98.8495 181.922 98.8825 181.893 98.9193L185.08 107.795L185.714 109.558L186.128 110.708C186.223 110.715 186.311 110.697 186.395 110.653C186.776 110.436 186.751 109.72 186.67 108.93Z" fill="#F3E7D8"/>
<path d="M223.579 162.946C224.572 162.3 225.455 161.631 226.162 161.01L225.539 160.051L224.916 159.092L222.128 154.798L216.728 158.321L219.516 162.615L220.139 163.574L220.762 164.533C221.619 164.133 222.586 163.593 223.579 162.946Z" fill="#1D439C"/>
<path d="M181.706 101.123C182.135 100.907 181.582 99.3785 181.893 98.923C181.919 98.8862 181.952 98.8532 181.992 98.8311C182.025 98.8128 182.065 98.8018 182.102 98.7981C182.618 98.754 183.523 99.9222 183.904 99.6871C184.065 99.5879 184.087 99.2573 184.021 98.8789L180.519 96.5792L181.245 101.017C181.424 101.131 181.589 101.179 181.706 101.123Z" fill="#F2759C"/>
<path d="M191.227 104.382C190.784 104.749 190.861 105.466 190.942 106.142C190.993 106.579 191.048 106.997 190.971 107.299L191.491 107.798L191.872 108.166L218.868 149.773L221.212 148.241L193.345 105.289L193.019 104.786L192.008 104.121C191.711 104.136 191.425 104.217 191.227 104.382Z" fill="#09BEEC"/>
<path d="M221.223 148.233L218.877 149.763L222.136 154.786L224.482 153.255L221.223 148.233Z" fill="#EBEBEB"/>
<path d="M213.48 153.291L211.134 154.822L214.393 159.844L216.739 158.313L213.48 153.291Z" fill="#C4C4C4"/>
<path d="M213.475 153.292L186.48 111.685L186.458 111.623L186.128 110.704C185.791 110.686 185.373 110.385 184.937 110.061C184.315 109.602 183.659 109.102 183.146 109.334C182.963 109.418 182.805 109.591 182.681 109.815L182.933 111.369L183.776 112.666L211.131 154.824L213.475 153.292Z" fill="#3454A5"/>
<path d="M191.876 108.162L191.495 107.795L190.975 107.295C190.938 107.438 190.872 107.552 190.758 107.633C190.414 107.875 189.854 107.604 189.253 107.244C188.597 106.854 187.894 106.362 187.355 106.307C187.194 106.292 187.047 106.311 186.923 106.388C186.791 106.469 186.703 106.601 186.644 106.77C186.465 107.288 186.589 108.144 186.67 108.93C186.747 109.72 186.776 110.436 186.388 110.649C186.307 110.693 186.216 110.708 186.121 110.704L186.45 111.623L186.472 111.685L213.468 153.292L218.868 149.769L191.876 108.162Z" fill="#387ABE"/>
<path d="M218.878 149.764L213.479 153.287L216.738 158.309L222.136 154.787L218.878 149.764Z" fill="#D9D9D8"/>
<path d="M195.484 130.707C195.045 130.707 196.037 134.075 196.477 134.513C196.917 134.95 198.631 135.365 199.159 135.541C199.686 135.718 200.261 136.728 200.261 136.728L201.606 135.398L200.88 134.134C200.88 134.134 201.36 132.793 201.009 132.176C200.657 131.563 200.038 129.579 199.543 130.057C199.221 130.369 199.844 131.831 199.844 131.831C199.844 131.831 199.946 133.256 199.598 133.084C199.247 132.907 195.484 130.707 195.484 130.707Z" fill="#FAC6C9"/>
<path d="M199.507 136.768C199.507 136.768 201.434 134.524 202.001 134.682C202.569 134.84 211.149 145.636 212.376 145.372C212.376 145.372 221.22 135.714 221.919 135.89C222.619 136.066 226.561 143.439 225.945 143.968C225.334 144.494 211.413 152.047 209.222 150.551C207.039 149.06 199.507 136.768 199.507 136.768Z" fill="#F79A20"/>
</svg>
